# xmcd
# Copyright (C) 1995-1998 Ti Kan
#
# Track frame offsets:
#       150
#       22778
#       42945
#       62334
#
# Disc length: 1123 seconds
#
# Revision: 0
# Processed by: cddbd v1.5.2PL0 Copyright (c) Steve Scherf et al.
# Submitted via: CD-Import v1.0
#
DISCID=22046104
DTITLE=Poison Heidi - The Passengers
DYEAR=10
DGENRE=
TTITLE0=Dream Or Drive
TTITLE1=The Passenger To Nowhere
TTITLE2=Tonight
TTITLE3=Hanged Man
EXTD=
EXTT0=
EXTT1=
EXTT2=
EXTT3=
PLAYORDER=
